<svg xmlns="http://www.w3.org/2000/svg" viewBox="0 0 512 512" width="512" height="512">
  <rect width="512" height="512" rx="80" fill="#0a0a0a"/>
  <g fill="#ff6b35">
    <rect x="80" y="360" width="352" height="50"/>
    <rect x="120" y="310" width="272" height="50"/>
    <rect x="160" y="260" width="192" height="50"/>
    <rect x="200" y="210" width="112" height="50"/>
    <rect x="226" y="170" width="60" height="40"/>
  </g>
  <g fill="#cc5528" opacity="0.6">
    <rect x="392" y="360" width="40" height="50"/>
    <rect x="352" y="310" width="40" height="50"/>
    <rect x="312" y="260" width="40" height="50"/>
    <rect x="272" y="210" width="40" height="50"/>
  </g>
  <g fill="#ffc94d">
    <circle cx="256" cy="125" r="20"/>
    <rect x="252" y="143" width="8" height="6"/>
    <path d="M 240 149 L 272 149 L 268 170 L 244 170 Z"/>
    <path d="M 240 152 L 215 100 L 222 92 L 248 145 Z"/>
    <path d="M 272 152 L 297 100 L 290 92 L 264 145 Z"/>
    <circle cx="218" cy="96" r="6"/>
    <circle cx="294" cy="96" r="6"/>
  </g>
</svg>
